<svg aria-roledescription="er" role="graphics-document document" viewBox="0 0 733.4443969726562 211.109375" style="max-width: 733.444px; background-color: white;" xmlns:xlink="http://www.w3.org/1999/xlink" xmlns="http://www.w3.org/2000/svg" width="100%" id="my-svg"><style>#my-svg{font-family:"trebuchet ms",verdana,arial,sans-serif;font-size:16px;fill:#333;}#my-svg .error-icon{fill:#552222;}#my-svg .error-text{fill:#552222;stroke:#552222;}#my-svg .edge-thickness-normal{stroke-width:1px;}#my-svg .edge-thickness-thick{stroke-width:3.5px;}#my-svg .edge-pattern-solid{stroke-dasharray:0;}#my-svg .edge-thickness-invisible{stroke-width:0;fill:none;}#my-svg .edge-pattern-dashed{stroke-dasharray:3;}#my-svg .edge-pattern-dotted{stroke-dasharray:2;}#my-svg .marker{fill:#333333;stroke:#333333;}#my-svg .marker.cross{stroke:#333333;}#my-svg svg{font-family:"trebuchet ms",verdana,arial,sans-serif;font-size:16px;}#my-svg p{margin:0;}#my-svg .entityBox{fill:#ECECFF;stroke:#9370DB;}#my-svg .attributeBoxOdd{fill:#ffffff;stroke:#9370DB;}#my-svg .attributeBoxEven{fill:#f2f2f2;stroke:#9370DB;}#my-svg .relationshipLabelBox{fill:hsl(80, 100%, 96.2745098039%);opacity:0.7;background-color:hsl(80, 100%, 96.2745098039%);}#my-svg .relationshipLabelBox rect{opacity:0.5;}#my-svg .relationshipLine{stroke:#333333;}#my-svg .entityTitleText{text-anchor:middle;font-size:18px;fill:#333;}#my-svg #MD_PARENT_START{fill:#f5f5f5!important;stroke:#333333!important;stroke-width:1;}#my-svg #MD_PARENT_END{fill:#f5f5f5!important;stroke:#333333!important;stroke-width:1;}#my-svg :root{--mermaid-font-family:"trebuchet ms",verdana,arial,sans-serif;}</style><g/><defs><marker orient="auto" markerHeight="240" markerWidth="190" refY="7" refX="0" id="MD_PARENT_START"><path d="M 18,7 L9,13 L1,7 L9,1 Z"/></marker></defs><defs><marker orient="auto" markerHeight="28" markerWidth="20" refY="7" refX="19" id="MD_PARENT_END"><path d="M 18,7 L9,13 L1,7 L9,1 Z"/></marker></defs><defs><marker orient="auto" markerHeight="18" markerWidth="18" refY="9" refX="0" id="ONLY_ONE_START"><path d="M9,0 L9,18 M15,0 L15,18" fill="none" stroke="gray"/></marker></defs><defs><marker orient="auto" markerHeight="18" markerWidth="18" refY="9" refX="18" id="ONLY_ONE_END"><path d="M3,0 L3,18 M9,0 L9,18" fill="none" stroke="gray"/></marker></defs><defs><marker orient="auto" markerHeight="18" markerWidth="30" refY="9" refX="0" id="ZERO_OR_ONE_START"><circle r="6" cy="9" cx="21" fill="white" stroke="gray"/><path d="M9,0 L9,18" fill="none" stroke="gray"/></marker></defs><defs><marker orient="auto" markerHeight="18" markerWidth="30" refY="9" refX="30" id="ZERO_OR_ONE_END"><circle r="6" cy="9" cx="9" fill="white" stroke="gray"/><path d="M21,0 L21,18" fill="none" stroke="gray"/></marker></defs><defs><marker orient="auto" markerHeight="36" markerWidth="45" refY="18" refX="18" id="ONE_OR_MORE_START"><path d="M0,18 Q 18,0 36,18 Q 18,36 0,18 M42,9 L42,27" fill="none" stroke="gray"/></marker></defs><defs><marker orient="auto" markerHeight="36" markerWidth="45" refY="18" refX="27" id="ONE_OR_MORE_END"><path d="M3,9 L3,27 M9,18 Q27,0 45,18 Q27,36 9,18" fill="none" stroke="gray"/></marker></defs><defs><marker orient="auto" markerHeight="36" markerWidth="57" refY="18" refX="18" id="ZERO_OR_MORE_START"><circle r="6" cy="18" cx="48" fill="white" stroke="gray"/><path d="M0,18 Q18,0 36,18 Q18,36 0,18" fill="none" stroke="gray"/></marker></defs><defs><marker orient="auto" markerHeight="36" markerWidth="57" refY="18" refX="39" id="ZERO_OR_MORE_END"><circle r="6" cy="18" cx="9" fill="white" stroke="gray"/><path d="M21,18 Q39,0 57,18 Q39,36 21,18" fill="none" stroke="gray"/></marker></defs><g transform="translate(20,20 )" id="entity-PRODUCTS-362c442a-463b-592a-aa0d-86bc5b21c2f4"><rect height="171.109375" width="296.6753234863281" y="0" x="0" class="er entityBox"/><text style="dominant-baseline: middle; text-anchor: middle; font-size: 12px;" transform="translate(148.33766174316406,12)" y="0" x="0" id="text-entity-PRODUCTS-362c442a-463b-592a-aa0d-86bc5b21c2f4" class="er entityLabel">PRODUCTS</text><rect height="21.015625" width="56" y="24" x="0" class="er attributeBoxOdd"/><text style="dominant-baseline: middle; font-size: 10.2px;" transform="translate(5,34.5078125)" y="0" x="0" id="text-entity-PRODUCTS-362c442a-463b-592a-aa0d-86bc5b21c2f4-attr-1-type" class="er entityLabel">int</text><rect height="21.015625" width="67.703125" y="24" x="56" class="er attributeBoxOdd"/><text style="dominant-baseline: middle; font-size: 10.2px;" transform="translate(61,34.5078125)" y="0" x="0" id="text-entity-PRODUCTS-362c442a-463b-592a-aa0d-86bc5b21c2f4-attr-1-name" class="er entityLabel">id</text><rect height="21.015625" width="24.456573486328125" y="24" x="123.703125" class="er attributeBoxOdd"/><text style="dominant-baseline: middle; font-size: 10.2px;" transform="translate(128.703125,34.5078125)" y="0" x="0" id="text-entity-PRODUCTS-362c442a-463b-592a-aa0d-86bc5b21c2f4-attr-1-key" class="er entityLabel">PK</text><rect height="21.015625" width="148.515625" y="24" x="148.15969848632812" class="er attributeBoxOdd"/><text style="dominant-baseline: middle; font-size: 10.2px;" transform="translate(153.15969848632812,34.5078125)" y="0" x="0" id="text-entity-PRODUCTS-362c442a-463b-592a-aa0d-86bc5b21c2f4-attr-1-comment" class="er entityLabel">auto increment</text><rect height="21.015625" width="56" y="45.015625" x="0" class="er attributeBoxEven"/><text style="dominant-baseline: middle; font-size: 10.2px;" transform="translate(5,55.5234375)" y="0" x="0" id="text-entity-PRODUCTS-362c442a-463b-592a-aa0d-86bc5b21c2f4-attr-2-type" class="er entityLabel">varchar</text><rect height="21.015625" width="67.703125" y="45.015625" x="56" class="er attributeBoxEven"/><text style="dominant-baseline: middle; font-size: 10.2px;" transform="translate(61,55.5234375)" y="0" x="0" id="text-entity-PRODUCTS-362c442a-463b-592a-aa0d-86bc5b21c2f4-attr-2-name" class="er entityLabel">sku</text><rect height="21.015625" width="24.456573486328125" y="45.015625" x="123.703125" class="er attributeBoxEven"/><text style="dominant-baseline: middle; font-size: 10.2px;" transform="translate(128.703125,55.5234375)" y="0" x="0" id="text-entity-PRODUCTS-362c442a-463b-592a-aa0d-86bc5b21c2f4-attr-2-key" class="er entityLabel">UK</text><rect height="21.015625" width="148.515625" y="45.015625" x="148.15969848632812" class="er attributeBoxEven"/><text style="dominant-baseline: middle; font-size: 10.2px;" transform="translate(153.15969848632812,55.5234375)" y="0" x="0" id="text-entity-PRODUCTS-362c442a-463b-592a-aa0d-86bc5b21c2f4-attr-2-comment" class="er entityLabel">64, unique</text><rect height="21.015625" width="56" y="66.03125" x="0" class="er attributeBoxOdd"/><text style="dominant-baseline: middle; font-size: 10.2px;" transform="translate(5,76.5390625)" y="0" x="0" id="text-entity-PRODUCTS-362c442a-463b-592a-aa0d-86bc5b21c2f4-attr-3-type" class="er entityLabel">varchar</text><rect height="21.015625" width="67.703125" y="66.03125" x="56" class="er attributeBoxOdd"/><text style="dominant-baseline: middle; font-size: 10.2px;" transform="translate(61,76.5390625)" y="0" x="0" id="text-entity-PRODUCTS-362c442a-463b-592a-aa0d-86bc5b21c2f4-attr-3-name" class="er entityLabel">name</text><rect height="21.015625" width="24.456573486328125" y="66.03125" x="123.703125" class="er attributeBoxOdd"/><text style="dominant-baseline: middle; font-size: 10.2px;" transform="translate(128.703125,76.5390625)" y="0" x="0" id="text-entity-PRODUCTS-362c442a-463b-592a-aa0d-86bc5b21c2f4-attr-3-key" class="er entityLabel"/><rect height="21.015625" width="148.515625" y="66.03125" x="148.15969848632812" class="er attributeBoxOdd"/><text style="dominant-baseline: middle; font-size: 10.2px;" transform="translate(153.15969848632812,76.5390625)" y="0" x="0" id="text-entity-PRODUCTS-362c442a-463b-592a-aa0d-86bc5b21c2f4-attr-3-comment" class="er entityLabel">128, indexed with is_active</text><rect height="21.015625" width="56" y="87.046875" x="0" class="er attributeBoxEven"/><text style="dominant-baseline: middle; font-size: 10.2px;" transform="translate(5,97.5546875)" y="0" x="0" id="text-entity-PRODUCTS-362c442a-463b-592a-aa0d-86bc5b21c2f4-attr-4-type" class="er entityLabel">int</text><rect height="21.015625" width="67.703125" y="87.046875" x="56" class="er attributeBoxEven"/><text style="dominant-baseline: middle; font-size: 10.2px;" transform="translate(61,97.5546875)" y="0" x="0" id="text-entity-PRODUCTS-362c442a-463b-592a-aa0d-86bc5b21c2f4-attr-4-name" class="er entityLabel">quantity</text><rect height="21.015625" width="24.456573486328125" y="87.046875" x="123.703125" class="er attributeBoxEven"/><text style="dominant-baseline: middle; font-size: 10.2px;" transform="translate(128.703125,97.5546875)" y="0" x="0" id="text-entity-PRODUCTS-362c442a-463b-592a-aa0d-86bc5b21c2f4-attr-4-key" class="er entityLabel"/><rect height="21.015625" width="148.515625" y="87.046875" x="148.15969848632812" class="er attributeBoxEven"/><text style="dominant-baseline: middle; font-size: 10.2px;" transform="translate(153.15969848632812,97.5546875)" y="0" x="0" id="text-entity-PRODUCTS-362c442a-463b-592a-aa0d-86bc5b21c2f4-attr-4-comment" class="er entityLabel">default 0, CHECK &gt;= 0</text><rect height="21.015625" width="56" y="108.0625" x="0" class="er attributeBoxOdd"/><text style="dominant-baseline: middle; font-size: 10.2px;" transform="translate(5,118.5703125)" y="0" x="0" id="text-entity-PRODUCTS-362c442a-463b-592a-aa0d-86bc5b21c2f4-attr-5-type" class="er entityLabel">boolean</text><rect height="21.015625" width="67.703125" y="108.0625" x="56" class="er attributeBoxOdd"/><text style="dominant-baseline: middle; font-size: 10.2px;" transform="translate(61,118.5703125)" y="0" x="0" id="text-entity-PRODUCTS-362c442a-463b-592a-aa0d-86bc5b21c2f4-attr-5-name" class="er entityLabel">is_active</text><rect height="21.015625" width="24.456573486328125" y="108.0625" x="123.703125" class="er attributeBoxOdd"/><text style="dominant-baseline: middle; font-size: 10.2px;" transform="translate(128.703125,118.5703125)" y="0" x="0" id="text-entity-PRODUCTS-362c442a-463b-592a-aa0d-86bc5b21c2f4-attr-5-key" class="er entityLabel"/><rect height="21.015625" width="148.515625" y="108.0625" x="148.15969848632812" class="er attributeBoxOdd"/><text style="dominant-baseline: middle; font-size: 10.2px;" transform="translate(153.15969848632812,118.5703125)" y="0" x="0" id="text-entity-PRODUCTS-362c442a-463b-592a-aa0d-86bc5b21c2f4-attr-5-comment" class="er entityLabel">default true, soft delete</text><rect height="21.015625" width="56" y="129.078125" x="0" class="er attributeBoxEven"/><text style="dominant-baseline: middle; font-size: 10.2px;" transform="translate(5,139.5859375)" y="0" x="0" id="text-entity-PRODUCTS-362c442a-463b-592a-aa0d-86bc5b21c2f4-attr-6-type" class="er entityLabel">datetime</text><rect height="21.015625" width="67.703125" y="129.078125" x="56" class="er attributeBoxEven"/><text style="dominant-baseline: middle; font-size: 10.2px;" transform="translate(61,139.5859375)" y="0" x="0" id="text-entity-PRODUCTS-362c442a-463b-592a-aa0d-86bc5b21c2f4-attr-6-name" class="er entityLabel">created_at</text><rect height="21.015625" width="24.456573486328125" y="129.078125" x="123.703125" class="er attributeBoxEven"/><text style="dominant-baseline: middle; font-size: 10.2px;" transform="translate(128.703125,139.5859375)" y="0" x="0" id="text-entity-PRODUCTS-362c442a-463b-592a-aa0d-86bc5b21c2f4-attr-6-key" class="er entityLabel"/><rect height="21.015625" width="148.515625" y="129.078125" x="148.15969848632812" class="er attributeBoxEven"/><text style="dominant-baseline: middle; font-size: 10.2px;" transform="translate(153.15969848632812,139.5859375)" y="0" x="0" id="text-entity-PRODUCTS-362c442a-463b-592a-aa0d-86bc5b21c2f4-attr-6-comment" class="er entityLabel"/><rect height="21.015625" width="56" y="150.09375" x="0" class="er attributeBoxOdd"/><text style="dominant-baseline: middle; font-size: 10.2px;" transform="translate(5,160.6015625)" y="0" x="0" id="text-entity-PRODUCTS-362c442a-463b-592a-aa0d-86bc5b21c2f4-attr-7-type" class="er entityLabel">datetime</text><rect height="21.015625" width="67.703125" y="150.09375" x="56" class="er attributeBoxOdd"/><text style="dominant-baseline: middle; font-size: 10.2px;" transform="translate(61,160.6015625)" y="0" x="0" id="text-entity-PRODUCTS-362c442a-463b-592a-aa0d-86bc5b21c2f4-attr-7-name" class="er entityLabel">updated_at</text><rect height="21.015625" width="24.456573486328125" y="150.09375" x="123.703125" class="er attributeBoxOdd"/><text style="dominant-baseline: middle; font-size: 10.2px;" transform="translate(128.703125,160.6015625)" y="0" x="0" id="text-entity-PRODUCTS-362c442a-463b-592a-aa0d-86bc5b21c2f4-attr-7-key" class="er entityLabel"/><rect height="21.015625" width="148.515625" y="150.09375" x="148.15969848632812" class="er attributeBoxOdd"/><text style="dominant-baseline: middle; font-size: 10.2px;" transform="translate(153.15969848632812,160.6015625)" y="0" x="0" id="text-entity-PRODUCTS-362c442a-463b-592a-aa0d-86bc5b21c2f4-attr-7-comment" class="er entityLabel"/></g><g transform="translate(416.6753234863281,41.015625 )" id="entity-USERS-1e82e395-936c-57a7-8ba9-b08f03574b93"><rect height="129.078125" width="296.7690734863281" y="0" x="0" class="er entityBox"/><text style="dominant-baseline: middle; text-anchor: middle; font-size: 12px;" transform="translate(148.38453674316406,12)" y="0" x="0" id="text-entity-USERS-1e82e395-936c-57a7-8ba9-b08f03574b93" class="er entityLabel">USERS</text><rect height="21.015625" width="56" y="24" x="0" class="er attributeBoxOdd"/><text style="dominant-baseline: middle; font-size: 10.2px;" transform="translate(5,34.5078125)" y="0" x="0" id="text-entity-USERS-1e82e395-936c-57a7-8ba9-b08f03574b93-attr-1-type" class="er entityLabel">int</text><rect height="21.015625" width="87.9375" y="24" x="56" class="er attributeBoxOdd"/><text style="dominant-baseline: middle; font-size: 10.2px;" transform="translate(61,34.5078125)" y="0" x="0" id="text-entity-USERS-1e82e395-936c-57a7-8ba9-b08f03574b93-attr-1-name" class="er entityLabel">id</text><rect height="21.015625" width="24.456573486328125" y="24" x="143.9375" class="er attributeBoxOdd"/><text style="dominant-baseline: middle; font-size: 10.2px;" transform="translate(148.9375,34.5078125)" y="0" x="0" id="text-entity-USERS-1e82e395-936c-57a7-8ba9-b08f03574b93-attr-1-key" class="er entityLabel">PK</text><rect height="21.015625" width="128.375" y="24" x="168.39407348632812" class="er attributeBoxOdd"/><text style="dominant-baseline: middle; font-size: 10.2px;" transform="translate(173.39407348632812,34.5078125)" y="0" x="0" id="text-entity-USERS-1e82e395-936c-57a7-8ba9-b08f03574b93-attr-1-comment" class="er entityLabel">auto increment</text><rect height="21.015625" width="56" y="45.015625" x="0" class="er attributeBoxEven"/><text style="dominant-baseline: middle; font-size: 10.2px;" transform="translate(5,55.5234375)" y="0" x="0" id="text-entity-USERS-1e82e395-936c-57a7-8ba9-b08f03574b93-attr-2-type" class="er entityLabel">varchar</text><rect height="21.015625" width="87.9375" y="45.015625" x="56" class="er attributeBoxEven"/><text style="dominant-baseline: middle; font-size: 10.2px;" transform="translate(61,55.5234375)" y="0" x="0" id="text-entity-USERS-1e82e395-936c-57a7-8ba9-b08f03574b93-attr-2-name" class="er entityLabel">username</text><rect height="21.015625" width="24.456573486328125" y="45.015625" x="143.9375" class="er attributeBoxEven"/><text style="dominant-baseline: middle; font-size: 10.2px;" transform="translate(148.9375,55.5234375)" y="0" x="0" id="text-entity-USERS-1e82e395-936c-57a7-8ba9-b08f03574b93-attr-2-key" class="er entityLabel">UK</text><rect height="21.015625" width="128.375" y="45.015625" x="168.39407348632812" class="er attributeBoxEven"/><text style="dominant-baseline: middle; font-size: 10.2px;" transform="translate(173.39407348632812,55.5234375)" y="0" x="0" id="text-entity-USERS-1e82e395-936c-57a7-8ba9-b08f03574b93-attr-2-comment" class="er entityLabel">64, unique, lowercased</text><rect height="21.015625" width="56" y="66.03125" x="0" class="er attributeBoxOdd"/><text style="dominant-baseline: middle; font-size: 10.2px;" transform="translate(5,76.5390625)" y="0" x="0" id="text-entity-USERS-1e82e395-936c-57a7-8ba9-b08f03574b93-attr-3-type" class="er entityLabel">varchar</text><rect height="21.015625" width="87.9375" y="66.03125" x="56" class="er attributeBoxOdd"/><text style="dominant-baseline: middle; font-size: 10.2px;" transform="translate(61,76.5390625)" y="0" x="0" id="text-entity-USERS-1e82e395-936c-57a7-8ba9-b08f03574b93-attr-3-name" class="er entityLabel">password_hash</text><rect height="21.015625" width="24.456573486328125" y="66.03125" x="143.9375" class="er attributeBoxOdd"/><text style="dominant-baseline: middle; font-size: 10.2px;" transform="translate(148.9375,76.5390625)" y="0" x="0" id="text-entity-USERS-1e82e395-936c-57a7-8ba9-b08f03574b93-attr-3-key" class="er entityLabel"/><rect height="21.015625" width="128.375" y="66.03125" x="168.39407348632812" class="er attributeBoxOdd"/><text style="dominant-baseline: middle; font-size: 10.2px;" transform="translate(173.39407348632812,76.5390625)" y="0" x="0" id="text-entity-USERS-1e82e395-936c-57a7-8ba9-b08f03574b93-attr-3-comment" class="er entityLabel">255, Argon2id</text><rect height="21.015625" width="56" y="87.046875" x="0" class="er attributeBoxEven"/><text style="dominant-baseline: middle; font-size: 10.2px;" transform="translate(5,97.5546875)" y="0" x="0" id="text-entity-USERS-1e82e395-936c-57a7-8ba9-b08f03574b93-attr-4-type" class="er entityLabel">datetime</text><rect height="21.015625" width="87.9375" y="87.046875" x="56" class="er attributeBoxEven"/><text style="dominant-baseline: middle; font-size: 10.2px;" transform="translate(61,97.5546875)" y="0" x="0" id="text-entity-USERS-1e82e395-936c-57a7-8ba9-b08f03574b93-attr-4-name" class="er entityLabel">created_at</text><rect height="21.015625" width="24.456573486328125" y="87.046875" x="143.9375" class="er attributeBoxEven"/><text style="dominant-baseline: middle; font-size: 10.2px;" transform="translate(148.9375,97.5546875)" y="0" x="0" id="text-entity-USERS-1e82e395-936c-57a7-8ba9-b08f03574b93-attr-4-key" class="er entityLabel"/><rect height="21.015625" width="128.375" y="87.046875" x="168.39407348632812" class="er attributeBoxEven"/><text style="dominant-baseline: middle; font-size: 10.2px;" transform="translate(173.39407348632812,97.5546875)" y="0" x="0" id="text-entity-USERS-1e82e395-936c-57a7-8ba9-b08f03574b93-attr-4-comment" class="er entityLabel"/><rect height="21.015625" width="56" y="108.0625" x="0" class="er attributeBoxOdd"/><text style="dominant-baseline: middle; font-size: 10.2px;" transform="translate(5,118.5703125)" y="0" x="0" id="text-entity-USERS-1e82e395-936c-57a7-8ba9-b08f03574b93-attr-5-type" class="er entityLabel">datetime</text><rect height="21.015625" width="87.9375" y="108.0625" x="56" class="er attributeBoxOdd"/><text style="dominant-baseline: middle; font-size: 10.2px;" transform="translate(61,118.5703125)" y="0" x="0" id="text-entity-USERS-1e82e395-936c-57a7-8ba9-b08f03574b93-attr-5-name" class="er entityLabel">updated_at</text><rect height="21.015625" width="24.456573486328125" y="108.0625" x="143.9375" class="er attributeBoxOdd"/><text style="dominant-baseline: middle; font-size: 10.2px;" transform="translate(148.9375,118.5703125)" y="0" x="0" id="text-entity-USERS-1e82e395-936c-57a7-8ba9-b08f03574b93-attr-5-key" class="er entityLabel"/><rect height="21.015625" width="128.375" y="108.0625" x="168.39407348632812" class="er attributeBoxOdd"/><text style="dominant-baseline: middle; font-size: 10.2px;" transform="translate(173.39407348632812,118.5703125)" y="0" x="0" id="text-entity-USERS-1e82e395-936c-57a7-8ba9-b08f03574b93-attr-5-comment" class="er entityLabel"/></g></svg>